<svg width="49" height="48" viewBox="0 0 49 48" fill="none" xmlns="http://www.w3.org/2000/svg">
<g id="Money/coint-growth">
<g id="Group">
<path id="Path" d="M26.9712 17.9976C26.9712 20.2085 22.4933 21.9992 16.969 21.9992C11.4427 21.9992 6.96484 20.2085 6.96484 17.9976" stroke="white" stroke-width="3" stroke-linecap="round" stroke-linejoin="round"/>
<path id="Path_2" d="M16.967 30.0024C11.4427 30.0024 6.96484 28.2117 6.96484 26.0007" stroke="white" stroke-width="3" stroke-linecap="round" stroke-linejoin="round"/>
<path id="Path_3" d="M26.9691 9.99414H26.9711V21.9991" stroke="white" stroke-width="3" stroke-linecap="round" stroke-linejoin="round"/>
<path id="Path_4" d="M42.9711 30.0024C42.9751 27.7915 38.4932 26.0007 32.9709 26.0007C27.4486 26.0007 22.9668 27.7915 22.9688 30.0024C22.9688 32.2133 27.4466 34.0041 32.9729 34.0041C38.4992 34.0041 42.9771 32.2133 42.9771 30.0024" stroke="white" stroke-width="3" stroke-linecap="round" stroke-linejoin="round"/>
<path id="Path_5" d="M42.9751 30.0024V38.0058C42.9751 40.2167 38.4972 42.0074 32.9729 42.0074C27.4466 42.0074 22.9688 40.2167 22.9688 38.0058V30.0024" stroke="white" stroke-width="3" stroke-linecap="round" stroke-linejoin="round"/>
<path id="Path_6" d="M16.9671 38.0058C11.4428 38.0058 6.96289 36.2151 6.96289 34.0042" stroke="white" stroke-width="3" stroke-linecap="round" stroke-linejoin="round"/>
<ellipse id="Oval" cx="16.9671" cy="9.9941" rx="10.0042" ry="4.00167" stroke="white" stroke-width="3" stroke-linecap="round" stroke-linejoin="round"/>
<path id="Path_7" d="M6.96233 9.99414V34.0041" stroke="white" stroke-width="3" stroke-linecap="round" stroke-linejoin="round"/>
<path id="Path_8" d="M36.975 9.99414V19.9983" stroke="white" stroke-width="3" stroke-linecap="round" stroke-linejoin="round"/>
<path id="Path_9" d="M40.977 13.9958L36.9753 9.99414L32.9736 13.9958" stroke="white" stroke-width="3" stroke-linecap="round" stroke-linejoin="round"/>
</g>
</g>
</svg>
