<svg width="56" height="56" viewBox="0 0 56 56" fill="none" xmlns="http://www.w3.org/2000/svg">
<g id="School, Learning/person-graduate">
<g id="Group">
<path id="Path" d="M27.9987 39.8524V48.9999" stroke="#6755DF" stroke-width="2" stroke-linecap="round" stroke-linejoin="round"/>
<path id="Path_2" d="M7 48.9999V45.5664C7 42.2297 9.35522 39.3568 12.6272 38.7024L19.2678 37.3742C19.8167 37.2645 20.3867 37.3772 20.8525 37.6877V37.6877C25.1807 40.5732 30.8194 40.5732 35.1477 37.6877V37.6877C35.6134 37.3772 36.1834 37.2645 36.7323 37.3742L43.373 38.7024C46.6449 39.3568 49 42.2297 49 45.5664V48.9999" stroke="#6755DF" stroke-width="2" stroke-linecap="round" stroke-linejoin="round"/>
<path id="Path_3" d="M37.3346 17.2627V23.3332C37.3346 28.4879 33.156 32.6666 28.0013 32.6666V32.6666C22.8466 32.6666 18.668 28.4879 18.668 23.3332V17.2627" stroke="#6755DF" stroke-width="2" stroke-linecap="round" stroke-linejoin="round"/>
<path id="Path_4" d="M32.9039 31.2792L34.5935 38.0376" stroke="#6755DF" stroke-width="2" stroke-linecap="round" stroke-linejoin="round"/>
<path id="Path_5" d="M23.1012 31.2792L21.4118 38.0373" stroke="#6755DF" stroke-width="2" stroke-linecap="round" stroke-linejoin="round"/>
<path id="Path_6" fill-rule="evenodd" clip-rule="evenodd" d="M14.2247 15.0644L24.6186 20.2099C26.7489 21.2633 29.2485 21.2633 31.3788 20.2099L41.7727 15.0644C42.6249 14.6477 43.1654 13.7819 43.1654 12.8333C43.1654 11.8846 42.6249 11.0189 41.7727 10.6022L31.3788 5.45666C29.2485 4.40328 26.7489 4.40328 24.6186 5.45666L14.2247 10.6022C13.3725 11.0189 12.832 11.8846 12.832 12.8333C12.832 13.7819 13.3725 14.6477 14.2247 15.0644Z" stroke="#6755DF" stroke-width="2" stroke-linecap="round" stroke-linejoin="round"/>
<path id="Path_7" d="M43.1667 12.9138V18.9805" stroke="#6755DF" stroke-width="2" stroke-linecap="round" stroke-linejoin="round"/>
</g>
</g>
</svg>
