<svg width="56" height="56" viewBox="0 0 56 56" fill="none" xmlns="http://www.w3.org/2000/svg">
<g id="Travel/A to B">
<g id="Group">
<g id="Group_2">
<path id="Path" d="M14 14L18.6667 9.33329L14 4.66663" stroke="#6755DF" stroke-width="1.5" stroke-linecap="round" stroke-linejoin="round"/>
<path id="Path_2" d="M25.4079 29.4254C30.4196 34.4371 30.4196 42.5628 25.4079 47.5745C20.3961 52.5862 12.2705 52.5862 7.25879 47.5745C2.24707 42.5628 2.24707 34.4371 7.25879 29.4254C12.2705 24.4137 20.3961 24.4137 25.4079 29.4254" stroke="#6755DF" stroke-width="2" stroke-linecap="round" stroke-linejoin="round"/>
<path id="Path_3" d="M22.1086 43.2879L16.3336 31.7379L10.5586 43.2879" stroke="#6755DF" stroke-width="2" stroke-linecap="round" stroke-linejoin="round"/>
<path id="Path_4" d="M11.7148 40.9733H20.9548" stroke="#6755DF" stroke-width="2" stroke-linecap="round" stroke-linejoin="round"/>
<path id="Path_5" d="M48.7399 8.42542C53.7516 13.4371 53.7516 21.5628 48.7399 26.5745C43.7282 31.5862 35.6025 31.5862 30.5908 26.5745C25.5791 21.5628 25.5791 13.4371 30.5908 8.42542C35.6025 3.4137 43.7282 3.4137 48.7399 8.42542" stroke="#6755DF" stroke-width="2" stroke-linecap="round" stroke-linejoin="round"/>
<path id="Path_6" fill-rule="evenodd" clip-rule="evenodd" d="M35 17.5V12.8916C35 12.2476 35.5227 11.725 36.1667 11.725H41.5613C43.155 11.725 44.45 13.0176 44.45 14.6113V14.6113C44.45 16.205 43.1573 17.4976 41.5613 17.4976H35L35 17.5Z" stroke="#6755DF" stroke-width="2" stroke-linecap="round" stroke-linejoin="round"/>
<path id="Path_7" d="M35 17.5V22.1083C35 22.7523 35.5227 23.275 36.1667 23.275H42.1167C43.7103 23.275 45.003 21.9823 45.003 20.3887V20.3887C45.003 18.795 43.7103 17.5023 42.1167 17.5023" stroke="#6755DF" stroke-width="2" stroke-linecap="round" stroke-linejoin="round"/>
<path id="Path_8" d="M48.9987 37.3333V41.9999C48.9987 44.5783 46.9104 46.6666 44.332 46.6666H37.332" stroke="#6755DF" stroke-width="1.5" stroke-linecap="round" stroke-linejoin="round"/>
<path id="Path_9" d="M7 18.6666V13.9999C7 11.4216 9.08833 9.33325 11.6667 9.33325H18.6667" stroke="#6755DF" stroke-width="1.5" stroke-linecap="round" stroke-linejoin="round"/>
</g>
</g>
</g>
</svg>
