<svg width="224" height="60" viewBox="0 0 224 60" fill="none" xmlns="http://www.w3.org/2000/svg">
<g id="Logo">
<g id="Group">
<path id="Shape" d="M87.6509 52.761C82.0054 52.761 77.3503 50.9007 73.7055 47.1801C70.0607 43.4595 68.2383 38.7297 68.2383 32.9707C68.2383 27.2117 70.0607 22.5016 73.7055 18.7613C77.3503 15.0209 82.0054 13.1804 87.6509 13.1804C92.3059 13.1804 96.3073 14.8428 99.6154 18.1478H99.7738V14.348H109.242V51.5933H99.7738V47.7936H99.6154C96.2875 51.0986 92.3059 52.761 87.6509 52.761ZM88.8988 45.0032C92.1078 45.0032 94.7226 43.8751 96.7431 41.619C98.7636 39.363 99.7738 36.4934 99.7738 32.9707C99.7738 29.448 98.7636 26.5586 96.7431 24.3223C94.7226 22.0663 92.1078 20.9382 88.8988 20.9382C85.6304 20.9382 82.9562 22.0663 80.8565 24.3223C78.7567 26.5784 77.7069 29.448 77.7069 32.9707C77.7069 36.4934 78.7567 39.3827 80.8565 41.619C82.9562 43.8751 85.6304 45.0032 88.8988 45.0032Z" fill="white"/>
<path id="Rectangle" d="M127.508 14.3286H118.039V51.5739H127.508V14.3286Z" fill="white"/>
<path id="Rectangle_2" d="M127.508 0.475098H118.039V9.93485H127.508V0.475098Z" fill="white"/>
<path id="Path" d="M136.32 51.5931V14.328H145.789V18.9787H145.947C148.225 15.0998 151.692 13.1604 156.347 13.1604C157.852 13.1604 159.12 13.2989 160.15 13.5562V22.165C158.902 21.8483 157.714 21.69 156.585 21.69C153.217 21.69 150.583 22.7191 148.661 24.7971C146.74 26.8751 145.789 29.7447 145.789 33.4059V51.5733H136.32V51.5931Z" fill="white"/>
<path id="Shape_2" d="M181.799 52.761C176.154 52.761 171.499 50.9007 167.854 47.1801C164.209 43.4595 162.387 38.7297 162.387 32.9707C162.387 27.2117 164.209 22.5016 167.854 18.7613C171.499 15.0407 176.154 13.1804 181.799 13.1804C186.454 13.1804 190.456 14.8428 193.764 18.1478H193.922V14.348H203.391V51.5933H193.922V47.7936H193.764C190.436 51.0986 186.454 52.761 181.799 52.761ZM183.047 45.0032C186.256 45.0032 188.871 43.8751 190.892 41.619C192.912 39.363 193.922 36.4934 193.922 32.9707C193.922 29.448 192.912 26.5586 190.892 24.3223C188.871 22.0663 186.256 20.9382 183.047 20.9382C179.779 20.9382 177.105 22.0663 175.005 24.3223C172.905 26.5784 171.855 29.448 171.855 32.9707C171.855 36.4934 172.905 39.3827 175.005 41.619C177.105 43.8751 179.779 45.0032 183.047 45.0032Z" fill="white"/>
</g>
<path id="Shape_3" d="M216.546 13.1803C214.684 13.1803 213.119 12.547 211.851 11.2607C210.583 9.9743 209.949 8.43066 209.949 6.59016C209.949 4.74967 210.583 3.18623 211.851 1.91966C213.119 0.633289 214.684 0 216.546 0C218.388 0 219.953 0.653079 221.24 1.93945C222.508 3.22581 223.162 4.78925 223.162 6.60995C223.162 8.43066 222.528 9.9743 221.24 11.2805C219.953 12.5272 218.388 13.1803 216.546 13.1803ZM212.564 10.568C213.653 11.6763 214.981 12.2304 216.546 12.2304C218.11 12.2304 219.438 11.6763 220.527 10.568C221.617 9.45975 222.151 8.1338 222.151 6.57037C222.151 5.00694 221.617 3.6612 220.527 2.55295C219.438 1.44469 218.11 0.890562 216.546 0.890562C214.981 0.890562 213.653 1.44469 212.564 2.55295C211.474 3.6612 210.94 5.00694 210.94 6.57037C210.94 8.1338 211.474 9.47954 212.564 10.568ZM214.248 9.83577V3.08728H216.922C217.635 3.08728 218.209 3.30498 218.645 3.74036C219.081 4.17575 219.299 4.69029 219.299 5.284C219.299 5.85792 219.121 6.33289 218.744 6.7089C218.368 7.08492 217.912 7.30261 217.338 7.34219L219.457 9.83577H218.467L216.427 7.44114H215.02V9.83577H214.248ZM215 6.68911H216.942C217.378 6.68911 217.734 6.57037 218.031 6.3131C218.328 6.05582 218.467 5.71939 218.467 5.284C218.467 4.86841 218.328 4.53197 218.031 4.25491C217.734 3.97784 217.358 3.83931 216.922 3.83931H215V6.68911Z" fill="white"/>
<path id="Path_2" d="M10.31 59.9297C4.61889 59.9297 0 55.3151 0 49.6293C0 43.9434 4.61889 39.3289 10.31 39.3289C16.0012 39.3289 20.62 43.9434 20.62 49.6293C20.62 55.3151 16.0012 59.9297 10.31 59.9297Z" fill="white"/>
<path id="Path_3" d="M41.166 54.0365C41.4612 54.7157 41.8352 55.335 42.2682 55.9343C44.0594 58.3515 46.9134 59.9296 50.1413 59.9296C55.5738 59.9296 59.9827 55.4549 59.9827 49.9413C59.9827 48.4831 59.6678 47.0847 59.1167 45.8262L39.4339 5.89308C37.8987 2.41716 34.4542 0 30.4586 0C25.0261 0 20.6172 4.47474 20.6172 9.98827C20.6172 11.4466 20.9321 12.8449 21.4832 14.1034L41.166 54.0365Z" fill="#FFAF00"/>
</g>
</svg>
